<svg xmlns="http://www.w3.org/2000/svg" width="128px" height="128px" viewBox="0 0 128 128" style="background-color: transparent;">
    <g><path style="opacity:0.829" fill="#130c04" d="M 108.5,80.5 C 108.959,85.7126 106.792,89.0459 102,90.5C 101,89.8333 100,89.1667 99,88.5C 94.3441,92.3295 89.3441,95.6628 84,98.5C 83.4387,97.9781 82.772,97.6448 82,97.5C 77.2258,99.8039 72.3925,101.971 67.5,104C 65.1667,104.667 62.8333,104.667 60.5,104C 54.8109,100.325 48.8109,98.3253 42.5,98C 36.427,95.2146 30.5936,92.0479 25,88.5C 22.0025,84.8754 21.1691,80.8754 22.5,76.5C 21.0768,71.9038 20.0768,67.2372 19.5,62.5C 20.8148,61.333 21.4814,59.833 21.5,58C 20.4544,52.5277 20.2877,47.0277 21,41.5C 23.9188,35.6242 28.4188,31.4575 34.5,29C 44.0719,26.3567 53.7385,24.1901 63.5,22.5C 72.5325,23.4207 81.5325,24.5874 90.5,26C 93.5,27.6667 95.8333,30 97.5,33C 102.245,34.1148 105.412,36.9481 107,41.5C 107.757,48.1977 107.591,54.8644 106.5,61.5C 110.008,67.2287 110.342,73.2287 107.5,79.5C 107.624,80.1067 107.957,80.44 108.5,80.5 Z"/></g>
    <g><path style="opacity:1" fill="#e0c5e3" d="M 86.5,27.5 C 89.1251,28.4405 89.1251,29.6072 86.5,31C 84.2922,31.1909 82.2922,31.6909 80.5,32.5C 77.8333,32.5 75.1667,32.5 72.5,32.5C 70.4727,32.6621 68.4727,32.4955 66.5,32C 68.3839,31.7837 70.0506,31.117 71.5,30C 67.8865,29.9033 64.5531,30.7367 61.5,32.5C 54.5803,33.6278 47.5803,33.7945 40.5,33C 39.6195,32.2917 38.9528,31.4584 38.5,30.5C 46.4333,28.3013 54.4333,26.3013 62.5,24.5C 70.4308,26.0848 78.4308,27.0848 86.5,27.5 Z"/></g>
    <g><path style="opacity:1" fill="#d8788e" d="M 72.5,32.5 C 72.5,32.8333 72.5,33.1667 72.5,33.5C 68.8019,33.4476 65.1352,33.1143 61.5,32.5C 64.5531,30.7367 67.8865,29.9033 71.5,30C 70.0506,31.117 68.3839,31.7837 66.5,32C 68.4727,32.4955 70.4727,32.6621 72.5,32.5 Z"/></g>
    <g><path style="opacity:1" fill="#da81a5" d="M 86.5,27.5 C 90.6644,28.4593 92.9977,31.1259 93.5,35.5C 93.6085,37.5138 92.9418,39.1805 91.5,40.5C 90.3285,41.3446 88.9952,42.0113 87.5,42.5C 87.5,41.8333 87.1667,41.5 86.5,41.5C 87.5676,40.5655 88.901,40.2322 90.5,40.5C 91.0965,38.602 91.0965,36.9354 90.5,35.5C 89.1667,34.8333 87.8333,34.1667 86.5,33.5C 84.7354,32.5386 82.7354,32.2053 80.5,32.5C 82.2922,31.6909 84.2922,31.1909 86.5,31C 89.1251,29.6072 89.1251,28.4405 86.5,27.5 Z"/></g>
    <g><path style="opacity:1" fill="#d85553" d="M 72.5,33.5 C 72.5,33.1667 72.5,32.8333 72.5,32.5C 75.1667,32.5 77.8333,32.5 80.5,32.5C 82.7354,32.2053 84.7354,32.5386 86.5,33.5C 85.7784,33.9175 85.2784,34.5842 85,35.5C 80.7285,34.2031 76.5618,33.5364 72.5,33.5 Z"/></g>
    <g><path style="opacity:1" fill="#e74821" d="M 38.5,30.5 C 38.9528,31.4584 39.6195,32.2917 40.5,33C 47.5803,33.7945 54.5803,33.6278 61.5,32.5C 65.1352,33.1143 68.8019,33.4476 72.5,33.5C 76.5618,33.5364 80.7285,34.2031 85,35.5C 85.2784,34.5842 85.7784,33.9175 86.5,33.5C 87.8333,34.1667 89.1667,34.8333 90.5,35.5C 90.3893,36.1174 90.056,36.6174 89.5,37C 83.2205,38.5125 76.8872,38.6791 70.5,37.5C 67.4284,37.8125 64.595,37.1458 62,35.5C 58.5592,36.3822 55.0592,36.7155 51.5,36.5C 46.0869,35.9176 40.7536,34.9176 35.5,33.5C 35.5,32.5 35.5,31.5 35.5,30.5C 36.5,30.5 37.5,30.5 38.5,30.5 Z"/></g>
    <g><path style="opacity:1" fill="#f3715e" d="M 70.5,37.5 C 70.5,38.1667 70.5,38.8333 70.5,39.5C 64.9114,39.0016 59.5781,39.6683 54.5,41.5C 54.4142,40.5041 54.7476,39.6708 55.5,39C 54.1416,38.0656 52.8083,37.2323 51.5,36.5C 55.0592,36.7155 58.5592,36.3822 62,35.5C 64.595,37.1458 67.4284,37.8125 70.5,37.5 Z"/></g>
    <g><path style="opacity:1" fill="#d94242" d="M 90.5,35.5 C 91.0965,36.9354 91.0965,38.602 90.5,40.5C 88.901,40.2322 87.5676,40.5655 86.5,41.5C 86.1667,41.5 85.8333,41.5 85.5,41.5C 85.2648,40.9033 84.7648,40.5699 84,40.5C 81.1161,41.117 78.2828,41.7837 75.5,42.5C 74.9517,39.9162 73.285,38.9162 70.5,39.5C 70.5,38.8333 70.5,38.1667 70.5,37.5C 76.8872,38.6791 83.2205,38.5125 89.5,37C 90.056,36.6174 90.3893,36.1174 90.5,35.5 Z"/></g>
    <g><path style="opacity:1" fill="#dfb3d4" d="M 93.5,35.5 C 96.6358,35.6031 99.3025,36.6031 101.5,38.5C 98.1667,39.1667 94.8333,39.8333 91.5,40.5C 92.9418,39.1805 93.6085,37.5138 93.5,35.5 Z"/></g>
    <g><path style="opacity:1" fill="#d5546d" d="M 32.5,34.5 C 33.209,33.596 34.209,33.2627 35.5,33.5C 40.7536,34.9176 46.0869,35.9176 51.5,36.5C 52.8083,37.2323 54.1416,38.0656 55.5,39C 54.7476,39.6708 54.4142,40.5041 54.5,41.5C 54.8333,42.1667 55.1667,42.8333 55.5,43.5C 52.8127,43.6641 50.146,43.4974 47.5,43C 43.7847,41.7048 40.1181,40.5381 36.5,39.5C 36.1667,39.5 35.8333,39.5 35.5,39.5C 34.5169,38.1497 33.1836,37.1497 31.5,36.5C 32.0253,35.8076 32.6919,35.3076 33.5,35C 33.2716,34.6012 32.9382,34.4346 32.5,34.5 Z"/></g>
    <g><path style="opacity:1" fill="#e07f82" d="M 85.5,41.5 C 83.1667,42.8333 80.8333,44.1667 78.5,45.5C 77.7784,45.0825 77.2784,44.4158 77,43.5C 74.8215,44.8398 74.3215,44.5065 75.5,42.5C 78.2828,41.7837 81.1161,41.117 84,40.5C 84.7648,40.5699 85.2648,40.9033 85.5,41.5 Z"/></g>
    <g><path style="opacity:1" fill="#d11f0b" d="M 85.5,41.5 C 85.8333,41.5 86.1667,41.5 86.5,41.5C 87.1667,41.5 87.5,41.8333 87.5,42.5C 86.3569,42.9081 85.3569,43.5748 84.5,44.5C 85.6864,48.0047 84.353,50.0047 80.5,50.5C 80.5,53.5 80.5,56.5 80.5,59.5C 83.8826,59.7428 87.0492,59.0761 90,57.5C 91.3333,58.1667 92.3333,59.1667 93,60.5C 93.711,58.1009 93.5443,55.7676 92.5,53.5C 92.8076,52.6919 93.3076,52.0253 94,51.5C 95.5322,55.5841 98.3655,56.5841 102.5,54.5C 102.5,55.1667 102.5,55.8333 102.5,56.5C 101.691,58.2922 101.191,60.2922 101,62.5C 100.439,61.9781 99.772,61.6448 99,61.5C 95.7328,62.2734 92.5661,63.2734 89.5,64.5C 87.1582,64.2252 87.1582,63.3919 89.5,62C 88.8333,61.8333 88.1667,61.6667 87.5,61.5C 84.3046,62.9284 81.3046,64.595 78.5,66.5C 78.5,64.8333 78.5,63.1667 78.5,61.5C 78.8364,57.8331 78.003,54.4998 76,51.5C 74.9887,50.6634 73.8221,50.33 72.5,50.5C 74.1307,48.3567 76.1307,46.69 78.5,45.5C 80.8333,44.1667 83.1667,42.8333 85.5,41.5 Z"/></g>
    <g><path style="opacity:1" fill="#dd3a36" d="M 35.5,39.5 C 35.8333,39.5 36.1667,39.5 36.5,39.5C 33.1301,40.8334 32.7968,43.0001 35.5,46C 34.6433,46.6891 33.9767,47.5224 33.5,48.5C 34.6882,48.3069 36.0215,48.8069 37.5,50C 36.1354,51.6819 34.6354,51.8486 33,50.5C 31.2434,52.88 31.0767,55.38 32.5,58C 30.6183,58.1981 28.9516,58.6981 27.5,59.5C 26.5386,57.7354 26.2053,55.7354 26.5,53.5C 27.1174,53.6107 27.6174,53.944 28,54.5C 28.2256,51.905 28.7256,49.405 29.5,47C 28.565,44.6194 28.2317,42.1194 28.5,39.5C 30.8333,39.5 33.1667,39.5 35.5,39.5 Z"/></g>
    <g><path style="opacity:1" fill="#ec552c" d="M 32.5,34.5 C 32.9382,34.4346 33.2716,34.6012 33.5,35C 32.6919,35.3076 32.0253,35.8076 31.5,36.5C 33.1836,37.1497 34.5169,38.1497 35.5,39.5C 33.1667,39.5 30.8333,39.5 28.5,39.5C 28.2317,42.1194 28.565,44.6194 29.5,47C 28.7256,49.405 28.2256,51.905 28,54.5C 27.6174,53.944 27.1174,53.6107 26.5,53.5C 26.1667,53.5 25.8333,53.5 25.5,53.5C 24.4822,46.7083 25.8155,40.5416 29.5,35C 30.448,34.5172 31.448,34.3505 32.5,34.5 Z"/></g>
    <g><path style="opacity:1" fill="#f8a675" d="M 70.5,39.5 C 73.285,38.9162 74.9517,39.9162 75.5,42.5C 74.3215,44.5065 74.8215,44.8398 77,43.5C 77.2784,44.4158 77.7784,45.0825 78.5,45.5C 76.1307,46.69 74.1307,48.3567 72.5,50.5C 69.8808,50.9255 67.5475,51.9255 65.5,53.5C 64.7368,51.6316 63.7368,49.9649 62.5,48.5C 60.5886,46.2976 58.2553,44.631 55.5,43.5C 55.1667,42.8333 54.8333,42.1667 54.5,41.5C 59.5781,39.6683 64.9114,39.0016 70.5,39.5 Z"/></g>
    <g><path style="opacity:1" fill="#e0400d" d="M 62.5,48.5 C 63.7368,49.9649 64.7368,51.6316 65.5,53.5C 65.631,54.2389 65.4643,54.9056 65,55.5C 63.4157,54.1387 61.5824,53.472 59.5,53.5C 56.8333,51.1667 54.1667,48.8333 51.5,46.5C 50.1498,45.3501 50.3164,44.6834 52,44.5C 55.242,47.0161 58.5754,49.3495 62,51.5C 62.4828,50.552 62.6495,49.552 62.5,48.5 Z"/></g>
    <g><path style="opacity:1" fill="#f8a78d" d="M 51.5,46.5 C 54.1667,48.8333 56.8333,51.1667 59.5,53.5C 59.5,54.1667 59.5,54.8333 59.5,55.5C 58.5,54.8333 57.5,54.1667 56.5,53.5C 55.8333,52.1667 54.8333,51.1667 53.5,50.5C 52.3995,49.3951 51.7329,48.0618 51.5,46.5 Z"/></g>
    <g><path style="opacity:1" fill="#cc353b" d="M 36.5,39.5 C 40.1181,40.5381 43.7847,41.7048 47.5,43C 50.146,43.4974 52.8127,43.6641 55.5,43.5C 58.2553,44.631 60.5886,46.2976 62.5,48.5C 62.6495,49.552 62.4828,50.552 62,51.5C 58.5754,49.3495 55.242,47.0161 52,44.5C 50.3164,44.6834 50.1498,45.3501 51.5,46.5C 50.5041,46.5858 49.6708,46.2524 49,45.5C 48.3468,47.5644 47.1801,49.2311 45.5,50.5C 47.3318,53.2431 48.3318,56.2431 48.5,59.5C 41.5,59.5 34.5,59.5 27.5,59.5C 28.9516,58.6981 30.6183,58.1981 32.5,58C 31.0767,55.38 31.2434,52.88 33,50.5C 34.6354,51.8486 36.1354,51.6819 37.5,50C 36.0215,48.8069 34.6882,48.3069 33.5,48.5C 33.9767,47.5224 34.6433,46.6891 35.5,46C 32.7968,43.0001 33.1301,40.8334 36.5,39.5 Z"/></g>
    <g><path style="opacity:1" fill="#e0180a" d="M 101.5,38.5 C 102.4,43.772 102.733,49.1053 102.5,54.5C 98.3655,56.5841 95.5322,55.5841 94,51.5C 93.3076,52.0253 92.8076,52.6919 92.5,53.5C 93.5443,55.7676 93.711,58.1009 93,60.5C 92.3333,59.1667 91.3333,58.1667 90,57.5C 87.0492,59.0761 83.8826,59.7428 80.5,59.5C 80.5,56.5 80.5,53.5 80.5,50.5C 84.353,50.0047 85.6864,48.0047 84.5,44.5C 85.3569,43.5748 86.3569,42.9081 87.5,42.5C 88.9952,42.0113 90.3285,41.3446 91.5,40.5C 94.8333,39.8333 98.1667,39.1667 101.5,38.5 Z"/></g>
    <g><path style="opacity:1" fill="#f5830b" d="M 72.5,50.5 C 73.8221,50.33 74.9887,50.6634 76,51.5C 78.003,54.4998 78.8364,57.8331 78.5,61.5C 76.1981,59.3438 73.5315,57.6772 70.5,56.5C 68.2531,59.8268 66.7531,59.8268 66,56.5C 65.7216,57.4158 65.2216,58.0825 64.5,58.5C 63.078,57.075 61.4113,56.075 59.5,55.5C 59.5,54.8333 59.5,54.1667 59.5,53.5C 61.5824,53.472 63.4157,54.1387 65,55.5C 65.4643,54.9056 65.631,54.2389 65.5,53.5C 67.5475,51.9255 69.8808,50.9255 72.5,50.5 Z"/></g>
    <g><path style="opacity:1" fill="#f2792f" d="M 53.5,50.5 C 54.8333,51.1667 55.8333,52.1667 56.5,53.5C 55.3754,54.0141 54.2087,54.3474 53,54.5C 51.4412,56.2166 50.6079,58.2166 50.5,60.5C 50.5,61.1667 50.5,61.8333 50.5,62.5C 49.8333,62.5 49.5,62.1667 49.5,61.5C 48.9008,56.9492 50.2341,53.2826 53.5,50.5 Z"/></g>
    <g><path style="opacity:1" fill="#fbbf75" d="M 59.5,55.5 C 61.4113,56.075 63.078,57.075 64.5,58.5C 64.5,59.1667 64.5,59.8333 64.5,60.5C 64.5,60.8333 64.5,61.1667 64.5,61.5C 62.1402,60.135 60.4735,58.135 59.5,55.5 Z"/></g>
    <g><path style="opacity:1" fill="#f89b30" d="M 56.5,53.5 C 57.5,54.1667 58.5,54.8333 59.5,55.5C 60.4735,58.135 62.1402,60.135 64.5,61.5C 65.2899,62.7942 66.2899,63.9609 67.5,65C 66.2068,65.49 64.8734,65.6567 63.5,65.5C 63.5,66.5 63.5,67.5 63.5,68.5C 60.6726,68.5838 58.006,69.2504 55.5,70.5C 55.5,70.1667 55.5,69.8333 55.5,69.5C 55.5,68.8333 55.5,68.1667 55.5,67.5C 57.2984,68.4629 58.6317,67.7962 59.5,65.5C 60.1667,66.1667 60.8333,66.8333 61.5,67.5C 62.9045,64.5262 62.2378,62.0262 59.5,60C 56.408,59.2642 53.408,59.4309 50.5,60.5C 50.6079,58.2166 51.4412,56.2166 53,54.5C 54.2087,54.3474 55.3754,54.0141 56.5,53.5 Z"/></g>
    <g><path style="opacity:1" fill="#f9ab09" d="M 78.5,61.5 C 78.5,63.1667 78.5,64.8333 78.5,66.5C 78.5,66.8333 78.5,67.1667 78.5,67.5C 76.8632,68.2178 75.1966,68.3845 73.5,68C 70.8991,64.8883 67.8991,62.3883 64.5,60.5C 64.5,59.8333 64.5,59.1667 64.5,58.5C 65.2216,58.0825 65.7216,57.4158 66,56.5C 66.7531,59.8268 68.2531,59.8268 70.5,56.5C 73.5315,57.6772 76.1981,59.3438 78.5,61.5 Z"/></g>
    <g><path style="opacity:0.15" fill="#000000" d="M 19.5,62.5 C 20.0768,67.2372 21.0768,71.9038 22.5,76.5C 21.1691,80.8754 22.0025,84.8754 25,88.5C 30.5936,92.0479 36.427,95.2146 42.5,98C 48.8109,98.3253 54.8109,100.325 60.5,104C 62.8333,104.667 65.1667,104.667 67.5,104C 72.3925,101.971 77.2258,99.8039 82,97.5C 82.772,97.6448 83.4387,97.9781 84,98.5C 89.3441,95.6628 94.3441,92.3295 99,88.5C 100,89.1667 101,89.8333 102,90.5C 106.792,89.0459 108.959,85.7126 108.5,80.5C 109.117,80.6107 109.617,80.944 110,81.5C 110.886,85.8661 110.386,90.0328 108.5,94C 100.686,95.0727 93.6864,98.0727 87.5,103C 81.5008,104 75.8341,106 70.5,109C 62.0773,110.764 54.4107,109.097 47.5,104C 38.3495,102.843 30.1829,99.3426 23,93.5C 22,91.5 21,89.5 20,87.5C 19.6754,81.0929 18.8421,74.7595 17.5,68.5C 17.361,66.1175 18.0277,64.1175 19.5,62.5 Z"/></g>
    <g><path style="opacity:1" fill="#c42212" d="M 51.5,46.5 C 51.7329,48.0618 52.3995,49.3951 53.5,50.5C 50.2341,53.2826 48.9008,56.9492 49.5,61.5C 47.442,60.176 45.7753,60.676 44.5,63C 46.8845,65.4505 46.5512,67.6171 43.5,69.5C 41.8333,69.5 40.1667,69.5 38.5,69.5C 38.0472,68.5416 37.3805,67.7083 36.5,67C 37.6721,66.5814 38.6721,65.9147 39.5,65C 37.7445,64.8595 36.0778,65.3595 34.5,66.5C 31.1059,64.8029 27.7726,63.1363 24.5,61.5C 25.4731,59.0521 25.8064,56.3854 25.5,53.5C 25.8333,53.5 26.1667,53.5 26.5,53.5C 26.2053,55.7354 26.5386,57.7354 27.5,59.5C 34.5,59.5 41.5,59.5 48.5,59.5C 48.3318,56.2431 47.3318,53.2431 45.5,50.5C 47.1801,49.2311 48.3468,47.5644 49,45.5C 49.6708,46.2524 50.5041,46.5858 51.5,46.5 Z"/></g>
    <g><path style="opacity:1" fill="#fcb93a" d="M 55.5,67.5 C 54.1667,65.5 52.5,63.8333 50.5,62.5C 50.5,61.8333 50.5,61.1667 50.5,60.5C 53.408,59.4309 56.408,59.2642 59.5,60C 62.2378,62.0262 62.9045,64.5262 61.5,67.5C 60.8333,66.8333 60.1667,66.1667 59.5,65.5C 58.6317,67.7962 57.2984,68.4629 55.5,67.5 Z"/></g>
    <g><path style="opacity:1" fill="#e2590b" d="M 64.5,60.5 C 67.8991,62.3883 70.8991,64.8883 73.5,68C 75.1966,68.3845 76.8632,68.2178 78.5,67.5C 77.7703,69.045 76.437,69.8784 74.5,70C 75.056,70.3826 75.3893,70.8826 75.5,71.5C 73.2655,72.4469 70.9322,73.1136 68.5,73.5C 67.5,73.1667 66.5,72.8333 65.5,72.5C 65.0576,71.2613 64.3909,70.2613 63.5,69.5C 63.5,69.1667 63.5,68.8333 63.5,68.5C 63.5,67.5 63.5,66.5 63.5,65.5C 64.8734,65.6567 66.2068,65.49 67.5,65C 66.2899,63.9609 65.2899,62.7942 64.5,61.5C 64.5,61.1667 64.5,60.8333 64.5,60.5 Z"/></g>
    <g><path style="opacity:1" fill="#d3593c" d="M 63.5,68.5 C 63.5,68.8333 63.5,69.1667 63.5,69.5C 63.5,70.5 63.5,71.5 63.5,72.5C 62.4168,72.4606 61.4168,72.1272 60.5,71.5C 59.3044,71.8457 59.3044,72.3457 60.5,73C 58.8659,73.4935 57.1992,73.6602 55.5,73.5C 55.5,72.5 55.5,71.5 55.5,70.5C 58.006,69.2504 60.6726,68.5838 63.5,68.5 Z"/></g>
    <g><path style="opacity:1" fill="#e33709" d="M 49.5,61.5 C 49.5,62.1667 49.8333,62.5 50.5,62.5C 52.5,63.8333 54.1667,65.5 55.5,67.5C 55.5,68.1667 55.5,68.8333 55.5,69.5C 53.9216,72.3465 52.5883,75.3465 51.5,78.5C 51.6106,76.3523 50.944,76.019 49.5,77.5C 48.4777,77.1445 47.811,76.4778 47.5,75.5C 48.2899,74.2058 49.2899,73.0391 50.5,72C 47.4535,73.2618 45.1202,72.4285 43.5,69.5C 46.5512,67.6171 46.8845,65.4505 44.5,63C 45.7753,60.676 47.442,60.176 49.5,61.5 Z"/></g>
    <g><path style="opacity:1" fill="#c42512" d="M 89.5,64.5 C 85.6552,69.5251 82.3218,74.8584 79.5,80.5C 78.5116,81.795 77.5116,83.1283 76.5,84.5C 75.7321,85.2625 75.2321,86.2625 75,87.5C 74.3992,85.6412 73.5659,85.3079 72.5,86.5C 71.2921,87.2341 69.9587,87.5674 68.5,87.5C 69.5736,86.1154 70.9069,84.9487 72.5,84C 70.6329,83.0808 68.6329,82.5808 66.5,82.5C 68.6131,80.2145 71.1131,78.5478 74,77.5C 74.813,75.5643 75.313,73.5643 75.5,71.5C 75.3893,70.8826 75.056,70.3826 74.5,70C 76.437,69.8784 77.7703,69.045 78.5,67.5C 78.5,67.1667 78.5,66.8333 78.5,66.5C 81.3046,64.595 84.3046,62.9284 87.5,61.5C 88.1667,61.6667 88.8333,61.8333 89.5,62C 87.1582,63.3919 87.1582,64.2252 89.5,64.5 Z"/></g>
    <g><path style="opacity:1" fill="#96170e" d="M 102.5,56.5 C 102.292,60.5564 102.958,64.3898 104.5,68C 103.766,72.1667 103.1,76.3334 102.5,80.5C 101.957,80.56 101.624,80.8933 101.5,81.5C 102.689,82.4287 104.022,82.762 105.5,82.5C 105.822,83.8582 105.822,85.5248 105.5,87.5C 103.265,87.7947 101.265,87.4614 99.5,86.5C 100.218,84.8632 100.384,83.1966 100,81.5C 98.9335,83.2826 97.4335,83.7826 95.5,83C 96.7112,82.1072 96.7112,81.2739 95.5,80.5C 94.4164,81.6651 93.5831,82.9984 93,84.5C 92.6899,80.2748 90.8565,79.1082 87.5,81C 88.5,81.3333 89.5,81.6667 90.5,82C 88.0514,82.9547 86.0514,84.4547 84.5,86.5C 83.7189,85.2713 83.2189,83.938 83,82.5C 82.6924,83.3081 82.1924,83.9747 81.5,84.5C 80.8281,83.0508 80.1614,81.7175 79.5,80.5C 82.3218,74.8584 85.6552,69.5251 89.5,64.5C 92.5661,63.2734 95.7328,62.2734 99,61.5C 99.772,61.6448 100.439,61.9781 101,62.5C 101.191,60.2922 101.691,58.2922 102.5,56.5 Z"/></g>
    <g><path style="opacity:1" fill="#df2d0e" d="M 63.5,69.5 C 64.3909,70.2613 65.0576,71.2613 65.5,72.5C 66.5,72.8333 67.5,73.1667 68.5,73.5C 70.9322,73.1136 73.2655,72.4469 75.5,71.5C 75.313,73.5643 74.813,75.5643 74,77.5C 71.1131,78.5478 68.6131,80.2145 66.5,82.5C 68.6329,82.5808 70.6329,83.0808 72.5,84C 70.9069,84.9487 69.5736,86.1154 68.5,87.5C 66.1732,87.6646 64.0065,88.3313 62,89.5C 63.2791,84.0632 63.7791,78.3965 63.5,72.5C 63.5,71.5 63.5,70.5 63.5,69.5 Z"/></g>
    <g><path style="opacity:1" fill="#a22637" d="M 24.5,61.5 C 27.7726,63.1363 31.1059,64.8029 34.5,66.5C 36.0778,65.3595 37.7445,64.8595 39.5,65C 38.6721,65.9147 37.6721,66.5814 36.5,67C 37.3805,67.7083 38.0472,68.5416 38.5,69.5C 38.2837,71.6807 39.117,73.3474 41,74.5C 41.3333,73.8333 41.6667,73.1667 42,72.5C 42.6449,73.646 43.4783,74.646 44.5,75.5C 43.8333,76.1667 43.1667,76.8333 42.5,77.5C 43.4596,83.7734 43.7929,90.1067 43.5,96.5C 37.6043,93.5369 31.9376,90.2036 26.5,86.5C 23.9566,83.4564 23.2899,80.1231 24.5,76.5C 23.9766,72.5089 22.9766,68.6756 21.5,65C 22.6364,63.8549 23.6364,62.6883 24.5,61.5 Z"/></g>
    <g><path style="opacity:1" fill="#a281ad" d="M 102.5,80.5 C 104.027,80.427 105.027,81.0937 105.5,82.5C 104.022,82.762 102.689,82.4287 101.5,81.5C 101.624,80.8933 101.957,80.56 102.5,80.5 Z"/></g>
    <g><path style="opacity:1" fill="#b72531" d="M 38.5,69.5 C 40.1667,69.5 41.8333,69.5 43.5,69.5C 45.1202,72.4285 47.4535,73.2618 50.5,72C 49.2899,73.0391 48.2899,74.2058 47.5,75.5C 45.1932,77.1788 44.1932,79.5122 44.5,82.5C 45.03,85.8983 45.8633,89.2317 47,92.5C 48.9976,88.0069 50.4976,83.3402 51.5,78.5C 52.5883,75.3465 53.9216,72.3465 55.5,69.5C 55.5,69.8333 55.5,70.1667 55.5,70.5C 55.5,71.5 55.5,72.5 55.5,73.5C 57.1992,73.6602 58.8659,73.4935 60.5,73C 59.3044,72.3457 59.3044,71.8457 60.5,71.5C 61.4168,72.1272 62.4168,72.4606 63.5,72.5C 63.7791,78.3965 63.2791,84.0632 62,89.5C 64.0065,88.3313 66.1732,87.6646 68.5,87.5C 69.9587,87.5674 71.2921,87.2341 72.5,86.5C 72.9382,86.4346 73.2716,86.6012 73.5,87C 70.2026,89.2954 67.2026,91.962 64.5,95C 61.7825,96.033 59.9492,95.1997 59,92.5C 58.6411,95.5443 57.9745,95.8776 57,93.5C 55.5881,95.0646 54.4214,96.7313 53.5,98.5C 51.1774,97.222 48.6774,96.222 46,95.5C 45.0979,95.7432 44.2646,96.0766 43.5,96.5C 43.7929,90.1067 43.4596,83.7734 42.5,77.5C 43.1667,76.8333 43.8333,76.1667 44.5,75.5C 43.4783,74.646 42.6449,73.646 42,72.5C 41.6667,73.1667 41.3333,73.8333 41,74.5C 39.117,73.3474 38.2837,71.6807 38.5,69.5 Z"/></g>
    <g><path style="opacity:1" fill="#901a1c" d="M 99.5,86.5 C 94.4901,90.1414 89.1568,93.4747 83.5,96.5C 82.5832,95.8728 81.5832,95.5394 80.5,95.5C 79.791,94.596 78.791,94.2627 77.5,94.5C 77.3739,92.8002 76.7073,91.3002 75.5,90C 76.2335,88.2341 76.5668,86.4008 76.5,84.5C 77.5116,83.1283 78.5116,81.795 79.5,80.5C 80.1614,81.7175 80.8281,83.0508 81.5,84.5C 82.1924,83.9747 82.6924,83.3081 83,82.5C 83.2189,83.938 83.7189,85.2713 84.5,86.5C 86.0514,84.4547 88.0514,82.9547 90.5,82C 89.5,81.6667 88.5,81.3333 87.5,81C 90.8565,79.1082 92.6899,80.2748 93,84.5C 93.5831,82.9984 94.4164,81.6651 95.5,80.5C 96.7112,81.2739 96.7112,82.1072 95.5,83C 97.4335,83.7826 98.9335,83.2826 100,81.5C 100.384,83.1966 100.218,84.8632 99.5,86.5 Z"/></g>
    <g><path style="opacity:1" fill="#bc0d10" d="M 47.5,75.5 C 47.811,76.4778 48.4777,77.1445 49.5,77.5C 50.944,76.019 51.6106,76.3523 51.5,78.5C 50.4976,83.3402 48.9976,88.0069 47,92.5C 45.8633,89.2317 45.03,85.8983 44.5,82.5C 44.1932,79.5122 45.1932,77.1788 47.5,75.5 Z"/></g>
    <g><path style="opacity:1" fill="#be2429" d="M 76.5,84.5 C 76.5668,86.4008 76.2335,88.2341 75.5,90C 76.7073,91.3002 77.3739,92.8002 77.5,94.5C 78.791,94.2627 79.791,94.596 80.5,95.5C 75.3155,98.507 69.8155,100.84 64,102.5C 60.2277,101.863 56.7277,100.53 53.5,98.5C 54.4214,96.7313 55.5881,95.0646 57,93.5C 57.9745,95.8776 58.6411,95.5443 59,92.5C 59.9492,95.1997 61.7825,96.033 64.5,95C 67.2026,91.962 70.2026,89.2954 73.5,87C 73.2716,86.6012 72.9382,86.4346 72.5,86.5C 73.5659,85.3079 74.3992,85.6412 75,87.5C 75.2321,86.2625 75.7321,85.2625 76.5,84.5 Z"/></g>
</svg>
